<?xml version="1.0" standalone="no"?>
<!DOCTYPE svg PUBLIC "-//W3C//DTD SVG 20010904//EN"
 "http://www.w3.org/TR/2001/REC-SVG-20010904/DTD/svg10.dtd">
<svg version="1.0" xmlns="http://www.w3.org/2000/svg"
 width="512.000000pt" height="512.000000pt" viewBox="0 0 512.000000 512.000000"
 preserveAspectRatio="xMidYMid meet">
<metadata>
Created by potrace 1.11, written by Peter Selinger 2001-2013
</metadata>
<g transform="translate(0.000000,512.000000) scale(0.100000,-0.100000)"
fill="#000000" stroke="none">
<path d="M2135 4751 c-147 -25 -350 -79 -442 -117 -94 -39 -305 -152 -388
-207 -131 -88 -216 -157 -344 -282 -445 -432 -659 -928 -678 -1571 -11 -355
52 -679 191 -994 121 -271 361 -585 615 -804 174 -150 305 -234 530 -339 303
-142 537 -194 921 -204 210 -5 251 -4 390 17 212 30 404 84 589 164 175 76
210 94 341 180 278 182 523 426 707 703 231 349 351 716 378 1161 l7 102 -216
0 -216 0 0 -77 c0 -121 -28 -335 -61 -461 -118 -460 -427 -879 -859 -1165
-359 -239 -822 -344 -1300 -297 -310 30 -614 138 -862 306 -224 152 -374 291
-540 501 -177 224 -301 498 -363 800 -30 143 -49 437 -39 583 9 127 59 381 99
502 55 170 189 423 300 568 87 112 267 301 367 383 249 203 468 316 793 408
85 24 307 58 430 65 168 11 498 -22 660 -66 198 -54 451 -170 625 -286 172
-115 396 -326 535 -504 216 -279 364 -639 411 -1000 l13 -105 -5 90 c-11 179
-70 434 -140 604 -142 344 -390 666 -709 922 -194 156 -463 294 -717 368 -201
59 -316 73 -603 77 -248 3 -267 2 -420 -25z"/>
</g>
</svg>
